<svg id="Layer_1" enable-background="new 0 0 512 512" height="512" viewBox="0 0 512 512" width="512" xmlns="http://www.w3.org/2000/svg"><g><g><path d="m256 512c-1.452 0-2.904-.211-4.311-.633l-160.667-48.2c-5.422-1.627-9.467-6.168-10.458-11.741-.991-5.574 1.24-11.23 5.77-14.627l25.705-19.277c20.389-15.294 32.561-39.638 32.561-65.121 0-5.198 2.691-10.026 7.114-12.76 4.42-2.731 9.942-2.982 14.594-.656l89.692 44.844 89.692-44.845c4.65-2.326 10.172-2.077 14.594.656 4.423 2.733 7.114 7.562 7.114 12.76 0 25.488 12.171 49.832 32.559 65.119 13.656 10.25 25.702 19.276 25.702 19.276 4.531 3.395 6.765 9.053 5.774 14.627-.99 5.575-5.035 10.117-10.458 11.744l-160.667 48.2c-1.405.423-2.858.634-4.31.634z" fill="#e6e3dc"/><path d="m260.311 511.367 160.667-48.2c5.423-1.627 9.468-6.169 10.458-11.744.99-5.574-1.243-11.232-5.774-14.627 0 0-12.046-9.026-25.702-19.276-20.388-15.287-32.559-39.631-32.559-65.119 0-5.198-2.691-10.026-7.114-12.76-4.422-2.733-9.943-2.982-14.594-.656l-89.693 44.844v128.171c1.452 0 2.905-.211 4.311-.633z" fill="#d2d2c8"/></g><g><path d="m290.617 39.46c-11.55-2.567-19.617-12.624-19.617-24.464 0-8.284-6.716-14.996-15-14.996s-15 6.72-15 15.004c0 11.831-8.07 21.888-19.604 24.451-90.865 20.236-124.995 90.193-124.995 147.454 0 8.284 6.716 15 15 15h289.199c8.284 0 15-6.716 15-15 0-57.555-34.307-127.262-124.983-147.449z" fill="#e6e3dc"/><path d="m415.6 186.909c0-57.556-34.307-127.262-124.982-147.449-11.551-2.567-19.618-12.624-19.618-24.464 0-8.284-6.716-14.996-15-14.996v201.909h144.6c8.284 0 15-6.716 15-15z" fill="#d2d2c8"/></g><path d="m256 415.6c-2.299 0-4.597-.528-6.708-1.584l-160.667-80.333c-5.082-2.54-8.292-7.734-8.292-13.416v-128.534c0-6.624 4.345-12.464 10.689-14.367l160.667-48.2c2.813-.844 5.809-.844 8.621 0l160.667 48.2c6.345 1.903 10.689 7.743 10.689 14.367v128.533c0 5.682-3.21 10.876-8.292 13.416l-160.667 80.333c-2.11 1.056-4.408 1.585-6.707 1.585z" fill="#faf5f0"/><path d="m262.708 414.016 160.667-80.333c5.082-2.54 8.292-7.734 8.292-13.416v-128.534c0-6.624-4.345-12.464-10.689-14.367l-160.667-48.2c-1.406-.422-2.859-.633-4.311-.633v287.067c2.299 0 4.597-.529 6.708-1.584z" fill="#e6e3dc"/><path d="m223.866 327.233c-8.284 0-15-6.716-15-15v-102.827c0-8.284 6.716-15 15-15s15 6.716 15 15v102.827c0 8.285-6.715 15-15 15z" fill="#5d3935"/><path d="m288.134 327.233c-8.284 0-15-6.716-15-15v-102.827c0-8.284 6.716-15 15-15s15 6.716 15 15v102.827c0 8.285-6.716 15-15 15z" fill="#170100"/><path d="m159.6 303.134c-8.284 0-15-6.716-15-15v-59.447c0-8.284 6.716-15 15-15s15 6.716 15 15v59.447c0 8.284-6.716 15-15 15z" fill="#5d3935"/><path d="m352.401 303.134c-8.284 0-15-6.716-15-15v-59.447c0-8.284 6.716-15 15-15s15 6.716 15 15v59.447c0 8.284-6.716 15-15 15z" fill="#170100"/></g></svg>